<?xml version="1.0" encoding="UTF-8"?>
<svg width="311px" height="221px" viewBox="0 0 311 221" version="1.1" xmlns="http://www.w3.org/2000/svg" xmlns:xlink="http://www.w3.org/1999/xlink">
    <!-- Generator: Sketch 57.1 (83088) - https://sketch.com -->
    <title>Header</title>
    <desc>Created with Sketch.</desc>
    <defs>
        <path d="M10.2555408,-4.14336123e-16 L69.7444592,4.14336123e-16 C73.3105342,-2.4074122e-16 74.6036791,0.371302445 75.9073828,1.06853082 C77.2110865,1.76575919 78.2342408,2.78891348 78.9314692,4.09261719 C79.6286976,5.39632089 80,6.68946584 80,10.2555408 L80,111.744459 C80,115.310534 79.6286976,116.603679 78.9314692,117.907383 C78.2342408,119.211087 77.2110865,120.234241 75.9073828,120.931469 C74.6036791,121.628698 73.3105342,122 69.7444592,122 L10.2555408,122 C6.68946584,122 5.39632089,121.628698 4.09261719,120.931469 C2.78891348,120.234241 1.76575919,119.211087 1.06853082,117.907383 C0.371302445,116.603679 1.60494146e-16,115.310534 -2.76224082e-16,111.744459 L2.76224082e-16,10.2555408 C-1.60494146e-16,6.68946584 0.371302445,5.39632089 1.06853082,4.09261719 C1.76575919,2.78891348 2.78891348,1.76575919 4.09261719,1.06853082 C5.39632089,0.371302445 6.68946584,2.4074122e-16 10.2555408,-4.14336123e-16 Z" id="path-1"></path>
        <filter x="-3.8%" y="-2.5%" width="107.5%" height="104.9%" filterUnits="objectBoundingBox" id="filter-2">
            <feOffset dx="0" dy="0" in="SourceAlpha" result="shadowOffsetOuter1"></feOffset>
            <feGaussianBlur stdDeviation="1" in="shadowOffsetOuter1" result="shadowBlurOuter1"></feGaussianBlur>
            <feColorMatrix values="0 0 0 0 0   0 0 0 0 0   0 0 0 0 0  0 0 0 0.5 0" type="matrix" in="shadowBlurOuter1"></feColorMatrix>
        </filter>
        <path d="M10.2555408,-4.14336123e-16 L69.7444592,4.14336123e-16 C73.3105342,-2.4074122e-16 74.6036791,0.371302445 75.9073828,1.06853082 C77.2110865,1.76575919 78.2342408,2.78891348 78.9314692,4.09261719 C79.6286976,5.39632089 80,6.68946584 80,10.2555408 L80,111.744459 C80,115.310534 79.6286976,116.603679 78.9314692,117.907383 C78.2342408,119.211087 77.2110865,120.234241 75.9073828,120.931469 C74.6036791,121.628698 73.3105342,122 69.7444592,122 L10.2555408,122 C6.68946584,122 5.39632089,121.628698 4.09261719,120.931469 C2.78891348,120.234241 1.76575919,119.211087 1.06853082,117.907383 C0.371302445,116.603679 1.60494146e-16,115.310534 -2.76224082e-16,111.744459 L2.76224082e-16,10.2555408 C-1.60494146e-16,6.68946584 0.371302445,5.39632089 1.06853082,4.09261719 C1.76575919,2.78891348 2.78891348,1.76575919 4.09261719,1.06853082 C5.39632089,0.371302445 6.68946584,2.4074122e-16 10.2555408,-4.14336123e-16 Z" id="path-3"></path>
        <filter x="-3.8%" y="-2.5%" width="107.5%" height="104.9%" filterUnits="objectBoundingBox" id="filter-4">
            <feOffset dx="0" dy="0" in="SourceAlpha" result="shadowOffsetOuter1"></feOffset>
            <feGaussianBlur stdDeviation="1" in="shadowOffsetOuter1" result="shadowBlurOuter1"></feGaussianBlur>
            <feColorMatrix values="0 0 0 0 0   0 0 0 0 0   0 0 0 0 0  0 0 0 0.5 0" type="matrix" in="shadowBlurOuter1"></feColorMatrix>
        </filter>
        <path d="M10.2555408,-4.14336123e-16 L69.7444592,4.14336123e-16 C73.3105342,-2.4074122e-16 74.6036791,0.371302445 75.9073828,1.06853082 C77.2110865,1.76575919 78.2342408,2.78891348 78.9314692,4.09261719 C79.6286976,5.39632089 80,6.68946584 80,10.2555408 L80,111.744459 C80,115.310534 79.6286976,116.603679 78.9314692,117.907383 C78.2342408,119.211087 77.2110865,120.234241 75.9073828,120.931469 C74.6036791,121.628698 73.3105342,122 69.7444592,122 L10.2555408,122 C6.68946584,122 5.39632089,121.628698 4.09261719,120.931469 C2.78891348,120.234241 1.76575919,119.211087 1.06853082,117.907383 C0.371302445,116.603679 1.60494146e-16,115.310534 -2.76224082e-16,111.744459 L2.76224082e-16,10.2555408 C-1.60494146e-16,6.68946584 0.371302445,5.39632089 1.06853082,4.09261719 C1.76575919,2.78891348 2.78891348,1.76575919 4.09261719,1.06853082 C5.39632089,0.371302445 6.68946584,2.4074122e-16 10.2555408,-4.14336123e-16 Z" id="path-5"></path>
        <filter x="-3.8%" y="-2.5%" width="107.5%" height="104.9%" filterUnits="objectBoundingBox" id="filter-6">
            <feOffset dx="0" dy="0" in="SourceAlpha" result="shadowOffsetOuter1"></feOffset>
            <feGaussianBlur stdDeviation="1" in="shadowOffsetOuter1" result="shadowBlurOuter1"></feGaussianBlur>
            <feColorMatrix values="0 0 0 0 0   0 0 0 0 0   0 0 0 0 0  0 0 0 0.5 0" type="matrix" in="shadowBlurOuter1"></feColorMatrix>
        </filter>
        <path d="M10.2555408,-4.14336123e-16 L69.7444592,4.14336123e-16 C73.3105342,-2.4074122e-16 74.6036791,0.371302445 75.9073828,1.06853082 C77.2110865,1.76575919 78.2342408,2.78891348 78.9314692,4.09261719 C79.6286976,5.39632089 80,6.68946584 80,10.2555408 L80,111.744459 C80,115.310534 79.6286976,116.603679 78.9314692,117.907383 C78.2342408,119.211087 77.2110865,120.234241 75.9073828,120.931469 C74.6036791,121.628698 73.3105342,122 69.7444592,122 L10.2555408,122 C6.68946584,122 5.39632089,121.628698 4.09261719,120.931469 C2.78891348,120.234241 1.76575919,119.211087 1.06853082,117.907383 C0.371302445,116.603679 1.60494146e-16,115.310534 -2.76224082e-16,111.744459 L2.76224082e-16,10.2555408 C-1.60494146e-16,6.68946584 0.371302445,5.39632089 1.06853082,4.09261719 C1.76575919,2.78891348 2.78891348,1.76575919 4.09261719,1.06853082 C5.39632089,0.371302445 6.68946584,2.4074122e-16 10.2555408,-4.14336123e-16 Z" id="path-7"></path>
        <filter x="-3.8%" y="-2.5%" width="107.5%" height="104.9%" filterUnits="objectBoundingBox" id="filter-8">
            <feOffset dx="0" dy="0" in="SourceAlpha" result="shadowOffsetOuter1"></feOffset>
            <feGaussianBlur stdDeviation="1" in="shadowOffsetOuter1" result="shadowBlurOuter1"></feGaussianBlur>
            <feColorMatrix values="0 0 0 0 0   0 0 0 0 0   0 0 0 0 0  0 0 0 0.5 0" type="matrix" in="shadowBlurOuter1"></feColorMatrix>
        </filter>
    </defs>
    <g id="Home" stroke="none" stroke-width="1" fill="none" fill-rule="evenodd">
        <g id="iPhone-XS" transform="translate(-32.000000, -105.000000)">
            <g id="Header" transform="translate(32.000000, 105.000000)">
                <rect id="Rectangle" fill="#FFFFFF" x="0" y="0" width="311" height="221"></rect>
                <polyline id="Rectangle" fill-opacity="0.1" fill="#007AC1" points="0 0 311 221 0 221"></polyline>
                <polyline id="Rectangle-Copy" fill-opacity="0.1" fill="#00A9F4" transform="translate(155.500000, 110.500000) scale(-1, -1) translate(-155.500000, -110.500000) " points="0 0 311 221 0 221"></polyline>
                <g id="Cards" transform="translate(168.500000, 108.000000) rotate(-5.000000) translate(-168.500000, -108.000000) translate(101.000000, 28.000000)">
                    <g id="Card" transform="translate(2.000000, 0.000000)">
                        <g id="Shadow">
                            <use fill="black" fill-opacity="1" filter="url(#filter-2)" xlink:href="#path-1"></use>
                            <use fill="#FFFFFF" fill-rule="evenodd" xlink:href="#path-1"></use>
                        </g>
                        <path d="M72,61 C24,61 26.6666667,61 80,61 L80,113.285714 C80,118.098481 76.418278,122 72,122 L8,122 C3.581722,122 0,118.098481 0,113.285714 L0,61" id="Bottom" fill="#67DAFF" fill-rule="evenodd"></path>
                        <path d="M80,2.84217094e-14 L80,52.2857143 C80,57.0984814 76.418278,61 72,61 L8,61 C3.581722,61 0,57.0984814 0,52.2857143 L0,2.84217094e-14 C8.26965335,2.84217094e-14 34.93632,2.84217094e-14 80,2.84217094e-14 Z" id="Top" fill="#BC477B" fill-rule="evenodd" transform="translate(40.000000, 30.500000) scale(1, -1) translate(-40.000000, -30.500000) "></path>
                        <path d="M10.2555408,-4.14336123e-16 L69.7444592,4.14336123e-16 C73.3105342,-2.4074122e-16 74.6036791,0.371302445 75.9073828,1.06853082 C77.2110865,1.76575919 78.2342408,2.78891348 78.9314692,4.09261719 C79.6286976,5.39632089 80,6.68946584 80,10.2555408 L80,111.744459 C80,115.310534 79.6286976,116.603679 78.9314692,117.907383 C78.2342408,119.211087 77.2110865,120.234241 75.9073828,120.931469 C74.6036791,121.628698 73.3105342,122 69.7444592,122 L10.2555408,122 C6.68946584,122 5.39632089,121.628698 4.09261719,120.931469 C2.78891348,120.234241 1.76575919,119.211087 1.06853082,117.907383 C0.371302445,116.603679 1.60494146e-16,115.310534 -2.76224082e-16,111.744459 L2.76224082e-16,10.2555408 C-1.60494146e-16,6.68946584 0.371302445,5.39632089 1.06853082,4.09261719 C1.76575919,2.78891348 2.78891348,1.76575919 4.09261719,1.06853082 C5.39632089,0.371302445 6.68946584,2.4074122e-16 10.2555408,-4.14336123e-16 Z" id="Border" stroke="#FFFFFF" stroke-width="1"></path>
                        <circle id="Oval" stroke="#FFFFFF" stroke-width="2" cx="40" cy="61" r="20"></circle>
                        <circle id="Oval-Copy" stroke="#FFFFFF" stroke-width="2" cx="40" cy="61" r="15"></circle>
                        <circle id="Oval-Copy-2" stroke="#FFFFFF" stroke-width="2" cx="40" cy="61" r="10"></circle>
                    </g>
                    <g id="Card" transform="translate(51.000000, 68.000000) rotate(11.000000) translate(-51.000000, -68.000000) translate(11.000000, 7.000000)">
                        <g id="Shadow">
                            <use fill="black" fill-opacity="1" filter="url(#filter-4)" xlink:href="#path-3"></use>
                            <use fill="#FFFFFF" fill-rule="evenodd" xlink:href="#path-3"></use>
                        </g>
                        <path d="M72,61 C24,61 26.6666667,61 80,61 L80,113.285714 C80,118.098481 76.418278,122 72,122 L8,122 C3.581722,122 0,118.098481 0,113.285714 L0,61" id="Bottom" fill="#67DAFF" fill-rule="evenodd"></path>
                        <path d="M80,2.84217094e-14 L80,52.2857143 C80,57.0984814 76.418278,61 72,61 L8,61 C3.581722,61 0,57.0984814 0,52.2857143 L0,2.84217094e-14 C8.26965335,2.84217094e-14 34.93632,2.84217094e-14 80,2.84217094e-14 Z" id="Top" fill="#BC477B" fill-rule="evenodd" transform="translate(40.000000, 30.500000) scale(1, -1) translate(-40.000000, -30.500000) "></path>
                        <path d="M10.2555408,-4.14336123e-16 L69.7444592,4.14336123e-16 C73.3105342,-2.4074122e-16 74.6036791,0.371302445 75.9073828,1.06853082 C77.2110865,1.76575919 78.2342408,2.78891348 78.9314692,4.09261719 C79.6286976,5.39632089 80,6.68946584 80,10.2555408 L80,111.744459 C80,115.310534 79.6286976,116.603679 78.9314692,117.907383 C78.2342408,119.211087 77.2110865,120.234241 75.9073828,120.931469 C74.6036791,121.628698 73.3105342,122 69.7444592,122 L10.2555408,122 C6.68946584,122 5.39632089,121.628698 4.09261719,120.931469 C2.78891348,120.234241 1.76575919,119.211087 1.06853082,117.907383 C0.371302445,116.603679 1.60494146e-16,115.310534 -2.76224082e-16,111.744459 L2.76224082e-16,10.2555408 C-1.60494146e-16,6.68946584 0.371302445,5.39632089 1.06853082,4.09261719 C1.76575919,2.78891348 2.78891348,1.76575919 4.09261719,1.06853082 C5.39632089,0.371302445 6.68946584,2.4074122e-16 10.2555408,-4.14336123e-16 Z" id="Border" stroke="#FFFFFF" stroke-width="1"></path>
                        <circle id="Oval" stroke="#FFFFFF" stroke-width="2" cx="40" cy="61" r="20"></circle>
                        <circle id="Oval-Copy" stroke="#FFFFFF" stroke-width="2" cx="40" cy="61" r="15"></circle>
                        <circle id="Oval-Copy-2" stroke="#FFFFFF" stroke-width="2" cx="40" cy="61" r="10"></circle>
                    </g>
                    <g id="Card" transform="translate(61.000000, 75.000000) rotate(21.000000) translate(-61.000000, -75.000000) translate(21.000000, 14.000000)">
                        <g id="Shadow">
                            <use fill="black" fill-opacity="1" filter="url(#filter-6)" xlink:href="#path-5"></use>
                            <use fill="#FFFFFF" fill-rule="evenodd" xlink:href="#path-5"></use>
                        </g>
                        <path d="M72,61 C24,61 26.6666667,61 80,61 L80,113.285714 C80,118.098481 76.418278,122 72,122 L8,122 C3.581722,122 0,118.098481 0,113.285714 L0,61" id="Bottom" fill="#67DAFF" fill-rule="evenodd"></path>
                        <path d="M80,2.84217094e-14 L80,52.2857143 C80,57.0984814 76.418278,61 72,61 L8,61 C3.581722,61 0,57.0984814 0,52.2857143 L0,2.84217094e-14 C8.26965335,2.84217094e-14 34.93632,2.84217094e-14 80,2.84217094e-14 Z" id="Top" fill="#BC477B" fill-rule="evenodd" transform="translate(40.000000, 30.500000) scale(1, -1) translate(-40.000000, -30.500000) "></path>
                        <path d="M10.2555408,-4.14336123e-16 L69.7444592,4.14336123e-16 C73.3105342,-2.4074122e-16 74.6036791,0.371302445 75.9073828,1.06853082 C77.2110865,1.76575919 78.2342408,2.78891348 78.9314692,4.09261719 C79.6286976,5.39632089 80,6.68946584 80,10.2555408 L80,111.744459 C80,115.310534 79.6286976,116.603679 78.9314692,117.907383 C78.2342408,119.211087 77.2110865,120.234241 75.9073828,120.931469 C74.6036791,121.628698 73.3105342,122 69.7444592,122 L10.2555408,122 C6.68946584,122 5.39632089,121.628698 4.09261719,120.931469 C2.78891348,120.234241 1.76575919,119.211087 1.06853082,117.907383 C0.371302445,116.603679 1.60494146e-16,115.310534 -2.76224082e-16,111.744459 L2.76224082e-16,10.2555408 C-1.60494146e-16,6.68946584 0.371302445,5.39632089 1.06853082,4.09261719 C1.76575919,2.78891348 2.78891348,1.76575919 4.09261719,1.06853082 C5.39632089,0.371302445 6.68946584,2.4074122e-16 10.2555408,-4.14336123e-16 Z" id="Border" stroke="#FFFFFF" stroke-width="1"></path>
                        <circle id="Oval" stroke="#FFFFFF" stroke-width="2" cx="40" cy="61" r="20"></circle>
                        <circle id="Oval-Copy" stroke="#FFFFFF" stroke-width="2" cx="40" cy="61" r="15"></circle>
                        <circle id="Oval-Copy-2" stroke="#FFFFFF" stroke-width="2" cx="40" cy="61" r="10"></circle>
                    </g>
                    <g id="Card" transform="translate(68.000000, 87.000000) rotate(32.000000) translate(-68.000000, -87.000000) translate(28.000000, 26.000000)">
                        <g id="Shadow">
                            <use fill="black" fill-opacity="1" filter="url(#filter-8)" xlink:href="#path-7"></use>
                            <use fill="#FFFFFF" fill-rule="evenodd" xlink:href="#path-7"></use>
                        </g>
                        <path d="M72,61 C24,61 26.6666667,61 80,61 L80,113.285714 C80,118.098481 76.418278,122 72,122 L8,122 C3.581722,122 0,118.098481 0,113.285714 L0,61" id="Bottom" fill="#67DAFF" fill-rule="evenodd"></path>
                        <path d="M80,2.84217094e-14 L80,52.2857143 C80,57.0984814 76.418278,61 72,61 L8,61 C3.581722,61 0,57.0984814 0,52.2857143 L0,2.84217094e-14 C8.26965335,2.84217094e-14 34.93632,2.84217094e-14 80,2.84217094e-14 Z" id="Top" fill="#BC477B" fill-rule="evenodd" transform="translate(40.000000, 30.500000) scale(1, -1) translate(-40.000000, -30.500000) "></path>
                        <path d="M10.2555408,-4.14336123e-16 L69.7444592,4.14336123e-16 C73.3105342,-2.4074122e-16 74.6036791,0.371302445 75.9073828,1.06853082 C77.2110865,1.76575919 78.2342408,2.78891348 78.9314692,4.09261719 C79.6286976,5.39632089 80,6.68946584 80,10.2555408 L80,111.744459 C80,115.310534 79.6286976,116.603679 78.9314692,117.907383 C78.2342408,119.211087 77.2110865,120.234241 75.9073828,120.931469 C74.6036791,121.628698 73.3105342,122 69.7444592,122 L10.2555408,122 C6.68946584,122 5.39632089,121.628698 4.09261719,120.931469 C2.78891348,120.234241 1.76575919,119.211087 1.06853082,117.907383 C0.371302445,116.603679 1.60494146e-16,115.310534 -2.76224082e-16,111.744459 L2.76224082e-16,10.2555408 C-1.60494146e-16,6.68946584 0.371302445,5.39632089 1.06853082,4.09261719 C1.76575919,2.78891348 2.78891348,1.76575919 4.09261719,1.06853082 C5.39632089,0.371302445 6.68946584,2.4074122e-16 10.2555408,-4.14336123e-16 Z" id="Border" stroke="#FFFFFF" stroke-width="1"></path>
                        <circle id="Oval" stroke="#FFFFFF" stroke-width="2" cx="40" cy="61" r="20"></circle>
                        <circle id="Oval-Copy" stroke="#FFFFFF" stroke-width="2" cx="40" cy="61" r="15"></circle>
                        <circle id="Oval-Copy-2" stroke="#FFFFFF" stroke-width="2" cx="40" cy="61" r="10"></circle>
                    </g>
                </g>
            </g>
        </g>
    </g>
</svg>